<?xml version="1.0" standalone="no"?>
<!DOCTYPE svg PUBLIC "-//W3C//DTD SVG 20010904//EN"
 "http://www.w3.org/TR/2001/REC-SVG-20010904/DTD/svg10.dtd">
<svg version="1.0" xmlns="http://www.w3.org/2000/svg"
 width="1600.000000pt" height="1600.000000pt" viewBox="0 0 1600.000000 1600.000000"
 preserveAspectRatio="xMidYMid meet">
<metadata>
Created by potrace 1.11, written by Peter Selinger 2001-2013
</metadata>
<g transform="translate(0.000000,1600.000000) scale(0.100000,-0.100000)"
fill="#000000" stroke="none">
<path d="M5819 14366 c-2 -2 -26 -6 -54 -10 -27 -3 -65 -10 -82 -15 -18 -5
-33 -8 -33 -6 0 9 -208 -68 -265 -98 -327 -170 -580 -499 -641 -831 -2 -16 -6
-32 -8 -35 -16 -26 -20 -358 -20 -1911 l-1 -1775 3625 0 3625 0 -1 1775 c0
1550 -4 1905 -19 1929 -2 4 -6 22 -9 41 -8 51 -50 177 -82 246 -169 361 -493
606 -901 679 -66 12 -477 14 -2604 14 -1389 1 -2528 -1 -2530 -3z m146 -1396
c18 -88 33 -195 50 -355 26 -247 26 -896 1 -1160 -2 -16 -6 -68 -11 -115 -4
-47 -9 -88 -11 -91 -1 -3 -6 -28 -9 -55 -12 -90 -47 -228 -55 -213 -9 16 -36
135 -45 194 -3 23 -7 50 -9 60 -2 11 -7 52 -11 90 -3 39 -8 84 -10 100 -27
214 -27 991 0 1210 2 17 7 57 10 90 8 75 14 123 21 155 2 14 7 39 10 55 5 30
20 92 31 130 5 18 7 18 15 -5 5 -14 15 -54 23 -90z"/>
<path d="M4872 9289 c-46 -9 -93 -50 -113 -99 -12 -28 -16 -5700 -4 -5780 12
-83 16 -105 31 -163 117 -456 465 -800 923 -913 131 -32 192 -36 521 -38 l285
-1 1 -190 c1 -245 7 -291 46 -351 34 -50 100 -98 158 -114 19 -5 83 -10 142
-10 137 0 200 21 256 85 58 66 64 102 65 358 l0 224 1220 -1 1220 -1 0 -220
c0 -160 4 -231 14 -259 22 -65 73 -123 133 -153 49 -25 68 -28 177 -32 100 -2
132 0 174 15 62 23 114 72 144 136 21 45 23 62 23 261 0 117 1 221 1 233 1 21
4 21 244 21 307 0 376 6 517 44 487 132 850 557 897 1049 4 41 7 1358 7 2925
0 2761 0 2851 -18 2888 -11 22 -37 50 -60 65 l-41 27 -3465 1 c-1906 0 -3480
-3 -3498 -7z m1087 -2519 c16 -80 19 -93 27 -147 3 -26 8 -57 10 -68 2 -10 6
-49 10 -85 3 -36 7 -83 10 -105 25 -256 25 -1004 -1 -1156 -2 -13 -6 -51 -10
-84 -10 -101 -16 -148 -26 -201 -5 -28 -12 -61 -14 -75 -3 -13 -11 -44 -18
-69 l-14 -45 -12 45 c-7 25 -15 54 -17 65 -2 11 -6 31 -8 45 -3 14 -8 41 -10
60 -3 19 -7 44 -10 55 -2 11 -7 54 -11 95 -4 41 -8 82 -10 90 -26 139 -26
1047 0 1212 2 13 6 54 10 91 3 37 8 76 10 87 2 10 7 40 11 67 10 72 19 113 41
187 8 27 18 6 32 -64z"/>
</g>
</svg>
