<svg id="Layer_1" data-name="Layer 1" xmlns="http://www.w3.org/2000/svg" viewBox="0 0 553.93 547.93"><defs><style>.cls-1,.cls-5{fill:#f8981d;}.cls-2,.cls-3,.cls-8{fill:#fff;}.cls-2,.cls-4,.cls-7,.cls-8{stroke:#f8981d;}.cls-2,.cls-4,.cls-5,.cls-7,.cls-8{stroke-miterlimit:10;}.cls-2,.cls-7{stroke-width:3px;}.cls-4,.cls-6,.cls-7{fill:#fffdfd;}.cls-4,.cls-5{stroke-width:4px;}.cls-5{stroke:#fffdfd;}.cls-8{stroke-width:2px;}</style></defs><title>ingredients-link-inverted</title><circle class="cls-1" cx="277.37" cy="274" r="271"/><circle class="cls-2" cx="225.91" cy="337.46" r="60.89"/><circle class="cls-2" cx="225.12" cy="336.67" r="50.61"/><circle class="cls-2" cx="224.33" cy="335.88" r="46.66"/><path class="cls-2" d="M193.49,300c8.41,19.11,18,31.72,22.7,30.27s5.62-17.26,1.9-37.84"/><path class="cls-2" d="M211.55,381.11c10.92-17.79,15.85-32.83,12-35.9s-17.39,5.21-32.19,20"/><path class="cls-2" d="M181.23,351.26c20.68-2.89,35.42-8.67,35.31-13.61s-15.08-10.11-35.9-12.12"/><path class="cls-2" d="M223.13,290.67c-.24,20.88,3.26,36.32,8.17,36.95s12.25-13.4,17.35-33.68"/><path class="cls-2" d="M258.84,368.79c-12.17-17-24.13-27.34-28.46-25s-1.94,18.05,5.94,37.42"/><path class="cls-2" d="M260.56,313.79c-17.69,11.1-28.77,22.4-26.65,26.87s17.9,3,37.71-3.63"/><path class="cls-3" d="M269.65,239.48a45.17,45.17,0,0,1,12,5.58,49.52,49.52,0,0,1,17.44,19.79,44.76,44.76,0,0,1,4,12.58,75.65,75.65,0,0,0-5.41-11.85,60.55,60.55,0,0,0-3.49-5.44,63.74,63.74,0,0,0-8.5-9.66c-1.57-1.47-3.25-2.83-5-4.15A75.33,75.33,0,0,0,269.65,239.48Z"/><path class="cls-4" d="M95,438.08c-1.63-3.23-10.76-22.08-2.62-42.91.34-.88,8.46-20.92,25.41-27.1,23-8.4,47.85,14.12,93.09,49.74,82.79,65.21,107,74.33,103.46,82.75-6.33,15.11-89.94-1-157.07-29.78A445.71,445.71,0,0,1,95,438.08Z"/><line class="cls-5" x1="54.42" y1="394.06" x2="95.7" y2="389.89"/><line class="cls-5" x1="70.36" y1="357.05" x2="96.49" y2="389.28"/><path class="cls-6" d="M160.61,404.38a55.54,55.54,0,0,1-29.77,40.9"/><path class="cls-1" d="M160.61,404.38a38.32,38.32,0,0,1-2.11,13.21,45.3,45.3,0,0,1-15.74,21.62,38.19,38.19,0,0,1-11.92,6.07,109.19,109.19,0,0,0,9.88-8.47,74.83,74.83,0,0,0,14.88-20.42A108.46,108.46,0,0,0,160.61,404.38Z"/><path class="cls-6" d="M176.05,416.39a55.53,55.53,0,0,1-29.78,40.89"/><path class="cls-1" d="M176.05,416.39a38.23,38.23,0,0,1-2.12,13.2,45.22,45.22,0,0,1-15.74,21.63,38.17,38.17,0,0,1-11.92,6.06,110.64,110.64,0,0,0,9.89-8.46,74.52,74.52,0,0,0,8.3-9.58A73.58,73.58,0,0,0,171,428.39,108.3,108.3,0,0,0,176.05,416.39Z"/><path class="cls-6" d="M194.91,425a55.48,55.48,0,0,1-29.77,40.89"/><path class="cls-1" d="M194.91,425a38.26,38.26,0,0,1-2.11,13.2,45.3,45.3,0,0,1-15.74,21.62,38.19,38.19,0,0,1-11.92,6.07A110.73,110.73,0,0,0,175,457.4,75.39,75.39,0,0,0,189.91,437,108.26,108.26,0,0,0,194.91,425Z"/><path class="cls-7" d="M281.58,92.68c7.91-12.56,24.36-27.77,41.84-24,14.26,3.09,22.36,17.32,26.16,24,12.89,22.61,10.52,47.15,7.84,74.92-3,31.5-4.83,50.13-18.3,59.93-11.64,8.47-27.92,7.39-39.24,0-16.07-10.5-19.31-31.94-23.53-59.93C272,138.8,268.23,113.84,281.58,92.68Z"/><path class="cls-7" d="M323.57,92.68c7.91-12.56,24.36-27.77,41.85-24,14.25,3.09,22.36,17.32,26.15,24,12.89,22.61,10.52,47.15,7.85,74.92-3,31.5-4.84,50.13-18.31,59.93-11.64,8.47-27.92,7.39-39.23,0-16.08-10.5-19.32-31.94-23.54-59.93C314,138.8,310.22,113.84,323.57,92.68Z"/><path class="cls-7" d="M335.94,118.52c10.2-12.55,31.4-27.77,53.94-24,18.37,3.09,28.83,17.32,33.72,24,16.61,22.61,13.56,47.15,10.11,74.92-3.91,31.5-6.23,50.13-23.6,59.93-15,8.47-36,7.4-50.57,0-20.73-10.5-24.9-31.94-30.35-59.93C323.59,164.65,318.73,139.69,335.94,118.52Z"/><path class="cls-7" d="M233.55,114c9.78-13.53,30.09-29.93,51.69-25.84,17.6,3.33,27.61,18.67,32.3,25.84,15.91,24.38,13,50.83,9.69,80.75-3.75,34-6,54-22.61,64.61-14.38,9.12-34.48,8-48.46,0-19.85-11.33-23.85-34.43-29.07-64.61C221.73,163.69,217.07,136.79,233.55,114Z"/><path class="cls-7" d="M285.24,133.35c9.77-13.53,30.08-29.92,51.68-25.84,17.6,3.33,27.62,18.67,32.3,25.84,15.92,24.38,13,50.83,9.69,80.76-3.75,33.95-6,54-22.61,64.6-14.37,9.12-34.48,8-48.45,0C288,267.38,284,244.28,278.78,214.11,273.41,183.07,268.76,156.17,285.24,133.35Z"/><path class="cls-7" d="M256.17,45.45c.12-4,6.29-7.79,12-8.75,17.94-3,40.26,21.07,48,45,4.21,13.09,4.23,26.74,1.33,27.49C313,110.33,309.6,78.8,282.8,61.69,269.85,53.42,256,51.44,256.17,45.45Z"/><path class="cls-8" d="M324.16,438.2c5,7.95,64.38-13.44,114.64-47C496.09,353,540,300,533.59,292.57,525.52,283.22,437,344.33,423,354,412.57,361.21,317.31,427.31,324.16,438.2Z"/><circle class="cls-8" cx="383.67" cy="402.31" r="10.76"/><path class="cls-8" d="M327.28,435.43c-7.52-5.71,20.58-62,60-108.19,44.95-52.62,103.42-90.63,110.29-83.58,8.62,8.86-62.9,89.94-74.22,102.76C414.92,356,337.6,443.24,327.28,435.43Z"/><circle class="cls-8" cx="409.05" cy="385.51" r="10.76"/><circle class="cls-8" cx="436.74" cy="367.18" r="10.76"/><circle class="cls-8" cx="462.11" cy="350.38" r="10.76"/><path class="cls-8" d="M285.82,429.3c-1.74,1.4-1.36,5.47.14,8.36,4.73,9.08,23.14,10.94,36.5,6.27,7.31-2.56,13.45-7.18,12.8-8.74-1-2.4-16.31,6.8-33.1.56C294.05,432.74,288.45,427.18,285.82,429.3Z"/><path class="cls-1" d="M324.21,122.93a138,138,0,0,0-9.36,15,95.75,95.75,0,0,0-6.77,16.11,80.89,80.89,0,0,0-3.41,17.09,81.93,81.93,0,0,0,.4,17.62A51.37,51.37,0,0,1,302.33,171a62.2,62.2,0,0,1,.79-9,66.37,66.37,0,0,1,5.38-17.28,70.08,70.08,0,0,1,4.33-7.94A68.49,68.49,0,0,1,324.21,122.93Z"/><path class="cls-3" d="M269.32,114.36a86.38,86.38,0,0,0-17.57,30.75,65.73,65.73,0,0,0-1.56,35.09"/><path class="cls-1" d="M269.32,114.36a165.51,165.51,0,0,0-9,15.21,105.28,105.28,0,0,0-6.63,16.08c-.83,2.76-1.58,5.55-2.17,8.38s-1,5.69-1.33,8.57a90,90,0,0,0,0,17.6,48.52,48.52,0,0,1-3.14-17.75,57.85,57.85,0,0,1,.72-9.1A65.29,65.29,0,0,1,257.6,128,63.69,63.69,0,0,1,269.32,114.36Z"/><line class="cls-5" x1="88.16" y1="139.45" x2="126.69" y2="172.22"/><line class="cls-5" x1="134.16" y1="122.21" x2="127.9" y2="172.4"/><ellipse class="cls-2" cx="94.16" cy="219.73" rx="52.29" ry="58.56"/><ellipse class="cls-2" cx="140.18" cy="219.73" rx="52.29" ry="58.56"/><path class="cls-1" d="M94.09,174a168.49,168.49,0,0,0-13.41,11.54,105.08,105.08,0,0,0-11.41,13.12c-1.67,2.35-3.27,4.76-4.73,7.25s-2.77,5.07-4,7.7a90.08,90.08,0,0,0-5.6,16.68,48.52,48.52,0,0,1,2.69-17.82,58.61,58.61,0,0,1,3.59-8.4,65.25,65.25,0,0,1,17.41-20.86A63.32,63.32,0,0,1,94.09,174Z"/></svg>