<svg id="Layer_1" data-name="Layer 1" xmlns="http://www.w3.org/2000/svg" viewBox="0 0 553.93 547.93"><defs><style>.cls-1{fill:#f8981d;}.cls-2,.cls-3{fill:#fff;}.cls-2{stroke:#f8981d;stroke-miterlimit:10;}</style></defs><title>suggestions-link-inverted</title><circle class="cls-1" cx="277" cy="274" r="271"/><path class="cls-2" d="M440.11,421A169.06,169.06,0,1,0,102,421c0,.28,0,.56,0,.85H440.1C440.1,421.53,440.11,421.25,440.11,421Z"/><circle class="cls-2" cx="277" cy="236.62" r="16.14"/><path class="cls-3" d="M337.22,77.76a58.32,58.32,0,0,1,9.64,28.38,52,52,0,0,1-.09,7.69,59.23,59.23,0,0,1-1.27,7.61c-1.24,5-3.18,9.65-4.52,14.27a49.37,49.37,0,0,0,0,28.34c2.64,9.36,7.27,18.18,12.43,26.7A80.23,80.23,0,0,1,338.05,165c-.43-1.19-.77-2.43-1.14-3.65s-.64-2.48-.86-3.75a49,49,0,0,1-.91-7.67,48.29,48.29,0,0,1,2-15.32c1.51-4.9,3.42-9.46,4.69-14.09a53.33,53.33,0,0,0,1.46-7c.11-1.2.27-2.39.32-3.59l.1-1.81,0-1.81C343.76,96.54,341.22,86.88,337.22,77.76Z"/><path class="cls-3" d="M283.59,71c-3.64,9.32-5.93,19-5.74,28.51l0,1.78L278,103c.05,1.19.24,2.35.36,3.52a58.06,58.06,0,0,0,1.49,6.9c1.29,4.54,3.23,9.06,4.73,14a55.06,55.06,0,0,1,1.67,7.71,47.43,47.43,0,0,1-.65,15.72c-.23,1.29-.6,2.54-.91,3.79s-.76,2.49-1.21,3.7A75.55,75.55,0,0,1,267.35,184c4.82-8.76,9.22-17.64,11.66-26.94a55.57,55.57,0,0,0,1.92-14,47,47,0,0,0-2.07-13.8c-1.33-4.54-3.25-9.23-4.47-14.32a53.23,53.23,0,0,1-1.24-7.75,55,55,0,0,1,0-7.81A56.07,56.07,0,0,1,283.59,71Z"/><path class="cls-3" d="M201.29,77.76a57,57,0,0,1,10,28.37,51.42,51.42,0,0,1,0,7.75,53.93,53.93,0,0,1-1.26,7.68c-1.22,5-3.14,9.72-4.49,14.29a47,47,0,0,0-2.06,14,56,56,0,0,0,2,14.13c2.55,9.33,7.06,18.17,12.05,26.82a77.47,77.47,0,0,1-15.77-25.66c-.45-1.2-.8-2.44-1.19-3.67s-.66-2.49-.89-3.77a47.58,47.58,0,0,1-.94-7.74,44.6,44.6,0,0,1,.35-7.83,52.71,52.71,0,0,1,1.66-7.64c1.49-4.95,3.42-9.49,4.71-14.07a57.53,57.53,0,0,0,1.46-7c.13-1.18.3-2.36.35-3.56l.13-1.79,0-1.8C207.53,96.62,205.11,87,201.29,77.76Z"/><path class="cls-1" d="M315.23,286.74a108.81,108.81,0,0,1,32.25,13.85,123.35,123.35,0,0,1,27,23c2,2.2,3.82,4.54,5.66,6.86.9,1.19,1.75,2.41,2.62,3.61s1.72,2.42,2.51,3.67a117.63,117.63,0,0,1,8.64,15.51A108.6,108.6,0,0,1,403.58,387a238.57,238.57,0,0,0-15.25-30.81Q384,348.88,379,342.05a165.14,165.14,0,0,0-10.54-13.17,180.2,180.2,0,0,0-24.57-23.15A235.25,235.25,0,0,0,315.23,286.74Z"/></svg>