<svg id="Layer_1" data-name="Layer 1" xmlns="http://www.w3.org/2000/svg" viewBox="0 0 541 541"><defs><style>.cls-1{fill:#f8981d;}.cls-2,.cls-3{fill:none;stroke:#fff;stroke-linecap:round;stroke-miterlimit:10;}.cls-2{stroke-width:10px;}.cls-3{stroke-width:11px;}.cls-4{fill:#fff;}</style></defs><title>world-link-inverted</title><circle class="cls-1" cx="270.5" cy="270.5" r="270.5"/><path class="cls-2" d="M403.87,41.07c-4.14,17.51-30.62,28.49-27.42,36,4.33,10.2,21.78,13.36,20.35,20.94-1.57,8.26-43.06,17.76-29.2,20.93,10.27,2.35,42.68,2.39-11.5,9.21-19.14,2.41-44.17,48.26,27.43,54.43,7.51.64,14.55-7,17.69-13.4,5.64-11.42-3-18.54,1.77-28.47s19.78-16.83,31.85-13.4c13.1,3.73,21.31,19.39,19.46,31.82-2.53,17-22.64,19.2-65.47,51.92-32,24.44-37.1,35.7-37.15,45.21,0,3.28,2.34,11.12,7.07,26.8,4.94,16.34,7.47,24.59,10.62,28.47,10.64,13.07,28.91,15.6,37.16,16.74,26.54,3.68,38-7.47,44.23-1.67,9.46,8.78-62.65,45.78-30.08,85.41,18.58,22.61-26.82,85.67-29.19,99.64" transform="translate(-6 -5)"/><path class="cls-2" d="M158.51,39.23c5,14.6,12.12,22,17.93,26,8.12,5.64,15.7,6.25,20.78,14.82,3.57,6,2,9.42,6.27,12.71,5.06,3.91,9.57.85,16.92,5.12,5.56,3.22,7.4,7.54,8.53,6.93,2.31-1.23-8.84-17.32-2.82-29.26,2.5-5,5.13-3.56,8.62-8.89,4.59-7,2.87-13.75,1.48-33.71-.34-4.94-.77-12.11-1-20.87" transform="translate(-6 -5)"/><path class="cls-3" d="M106.47,72.84c14.4-6.38,30.54-3.38,39.5,6.87,9.21,10.53,8.6,26.12,3.44,36.07-8,15.33-26.14,16.06-25.76,24,.35,7.36,15.84,7.28,25.76,22.33,1.37,2.07,8.9,13.5,5.15,22.32-4.11,9.68-18.31,8.08-34.35,13.74-29.92,10.57-55.75,42.7-51.52,65.27.46,2.46,7.75,11.4,22.32,29.19,18,22,22.15,26.27,29.2,27.48,11.76,2,14.76-7.44,27.48-6.87,17.76.8,37.21,20.38,39.5,39.51,1.15,9.58-2.41,15.71,0,34.34,1.1,8.46,2.41,11.68,3.44,13.74,5.92,11.93,15.43,12,17.17,18.9,2.34,9.28-13.38,15-22.33,30.91-13.65,24.22,2.85,46.52-5.15,51.52-14.69,9.2-86.92-55.65-75.57-97.89,1.69-6.25,4.47-9.32,3.44-15.46-3.93-23.32-51.38-22.21-56.68-44.65-3.83-16.22,18.7-26.34,13.74-44.66-3.1-11.43-13.41-13.1-25.76-25.76-8.93-9.15-19.44-24.57-24-51.52" transform="translate(-6 -5)"/><path class="cls-4" d="M146,232.56a5.23,5.23,0,0,1,.78-2.84,14.94,14.94,0,0,1,1.77-2.43,27.57,27.57,0,0,1,4.56-4,28,28,0,0,1,11.79-5.08,21.76,21.76,0,0,1,7.06.07,22.13,22.13,0,0,1,6.8,2.53,24,24,0,0,1,5.66,4.48,21.27,21.27,0,0,1,4.18,6.38,15.65,15.65,0,0,1,1.11,4.4c0,.45,0,.92,0,1.38,0,.24,0,.45,0,.71l-.13.79a7.45,7.45,0,0,1-.42,1.6,13.69,13.69,0,0,1-.78,1.64,15.2,15.2,0,0,1-1.11,1.43,12,12,0,0,1-1.21,1,10.21,10.21,0,0,1-1.19.76,6.59,6.59,0,0,1-1.16.54,14.35,14.35,0,0,1-4.1,1c-5,.39-9.12-.74-13.17-2-2-.65-4-1.42-5.86-2.23s-3.77-1.67-5.6-2.58a46.18,46.18,0,0,1-5.25-3,14.66,14.66,0,0,1-2.31-1.91A4.58,4.58,0,0,1,146,232.56Zm0,0a4.17,4.17,0,0,0,1.47,2.52,10.73,10.73,0,0,0,2.44,1.66,22.84,22.84,0,0,0,5.57,1.93,43.41,43.41,0,0,0,11.69.75,50.61,50.61,0,0,0,5.64-.65,29.14,29.14,0,0,0,4.95-1.22,6.07,6.07,0,0,0,1.56-.82c.31-.23.24-.42-.15,0s-.29.57-.32.34a9.54,9.54,0,0,0-.44-1.34,18.9,18.9,0,0,0-2.11-3.69,27.91,27.91,0,0,0-3.05-3.61,20.5,20.5,0,0,0-3.74-2.95,15.93,15.93,0,0,0-4.66-1.88,18.8,18.8,0,0,0-5.44-.38,19.19,19.19,0,0,0-5.58,1.3,16.91,16.91,0,0,0-5,3,10.47,10.47,0,0,0-1.94,2.21A4.73,4.73,0,0,0,146,232.56Z" transform="translate(-6 -5)"/><path class="cls-4" d="M315.13,90.25a4.42,4.42,0,0,0-1.34-3.09,12.9,12.9,0,0,0-2.61-2.22A24.2,24.2,0,0,0,305,82.11a29.23,29.23,0,0,0-13.2-.76,26.9,26.9,0,0,0-11.22,4.71,28.84,28.84,0,0,0-4.39,3.79,16.41,16.41,0,0,0-3,4c-.29.57-.33,1.06-.35.9a1.45,1.45,0,0,0-.26-.59c-.18-.26-.32-.31-.26-.23a4.63,4.63,0,0,0,1.6.83,23.61,23.61,0,0,0,2.73.77,62.77,62.77,0,0,0,6.34,1c2.2.25,4.45.43,6.72.51a66,66,0,0,0,13.67-.77A34.61,34.61,0,0,0,310,94.49a15.21,15.21,0,0,0,3.05-1.58A4.47,4.47,0,0,0,315.13,90.25Zm0,0a4.68,4.68,0,0,1-2,2.73,20.79,20.79,0,0,1-3,1.82,63.86,63.86,0,0,1-6.39,2.82,132.88,132.88,0,0,1-13.48,4.44,53.85,53.85,0,0,1-14.56,2.1,22.66,22.66,0,0,1-4.08-.41,16.8,16.8,0,0,1-2.25-.6,10.68,10.68,0,0,1-2.52-1.19A8.42,8.42,0,0,1,263,95.43a10.3,10.3,0,0,1,.29-3.25,13.61,13.61,0,0,1,.9-2.53,21,21,0,0,1,5.44-6.86A28.29,28.29,0,0,1,284,76.36a31.32,31.32,0,0,1,7.68,0,41.65,41.65,0,0,1,13.78,4.48,36.24,36.24,0,0,1,5.89,3.82,16.35,16.35,0,0,1,2.48,2.44A4.72,4.72,0,0,1,315.13,90.25Z" transform="translate(-6 -5)"/><path class="cls-4" d="M167.05,266.29c-.05-.4.27-.71.55-1a6.87,6.87,0,0,1,1-.64c.67-.37,1.37-.69,2.07-1,1.42-.61,2.87-1.15,4.34-1.68a72.38,72.38,0,0,1,9.24-2.66,29.61,29.61,0,0,1,10.15-.47,22,22,0,0,1,5.22,1.36,17.53,17.53,0,0,1,2.69,1.37,12.32,12.32,0,0,1,1.45,1.08,8.82,8.82,0,0,1,1.67,1.91l.22.36c.08.15.16.31.23.47a6.66,6.66,0,0,1,.4,1.13,5.87,5.87,0,0,1,.13.72,5.1,5.1,0,0,1,0,.81,5.68,5.68,0,0,1-.29,1.79,6.06,6.06,0,0,1-.78,1.57,6.38,6.38,0,0,1-1,1.06q-.24.21-.48.39l-.4.27a6.79,6.79,0,0,1-.73.39,9.26,9.26,0,0,1-2.05.69,12.26,12.26,0,0,1-1.55.24,24.27,24.27,0,0,1-5.21-.07,54.33,54.33,0,0,1-9.43-2c-3.05-.89-6.05-1.9-9-2.78l-4.43-1.34c-.73-.23-1.46-.47-2.18-.74a10.8,10.8,0,0,1-1-.48A1.54,1.54,0,0,1,167.05,266.29Zm0,0c.12.37.5.56.82.74a6,6,0,0,0,1.06.41,16.74,16.74,0,0,0,2.23.5,30,30,0,0,0,4.55.31,57.39,57.39,0,0,0,9.15-.88c3-.48,6-1.08,8.85-1.59,1.39-.27,2.79-.53,3.89-.82.26-.08.52-.15.68-.21s.29-.14.11-.07l-.23.12-.17.11-.26.2a3.83,3.83,0,0,0-.57.64,4.11,4.11,0,0,0-.53,1.07,4.06,4.06,0,0,0-.09,2.19,4.37,4.37,0,0,0,.2.59,1,1,0,0,0,.11.21.83.83,0,0,0,.07.13c.2.29.21.25.16.2a3,3,0,0,0-.37-.31,12.44,12.44,0,0,0-1.29-.87,37.14,37.14,0,0,0-3.35-1.77,43.15,43.15,0,0,0-7.92-2.86,31.31,31.31,0,0,0-8.93-1,21.35,21.35,0,0,0-4.49.66,12.68,12.68,0,0,0-2.14.76,5,5,0,0,0-1,.58A1.14,1.14,0,0,0,167.05,266.29Z" transform="translate(-6 -5)"/></svg>